HIERARCHY
ROOT Hips
{
  OFFSET -331.093 83.8371 -317.828
  CHANNELS 6 Xposition Yposition Zposition Zrotation Xrotation Yrotation
  JOINT LeftUpLeg
  {
    OFFSET 8.64259 1.95398 -2.38835
    CHANNELS 3 Zrotation Xrotation Yrotation
    JOINT LeftLeg
    {
      OFFSET 43.7702 0 0
      CHANNELS 3 Zrotation Xrotation Yrotation
      JOINT LeftFoot
      {
        OFFSET 40.6238 0 0
        CHANNELS 3 Zrotation Xrotation Yrotation
        JOINT LeftToeBase
        {
          OFFSET 12.7242 0 0
          CHANNELS 3 Zrotation Xrotation Yrotation
          End Site
          {
            OFFSET 0 0 0
          }
        }
      }
    }
  }
  JOINT RightUpLeg
  {
    OFFSET -8.2249 1.95398 -2.59336
    CHANNELS 3 Zrotation Xrotation Yrotation
    JOINT RightLeg
    {
      OFFSET 43.5653 0 0
      CHANNELS 3 Zrotation Xrotation Yrotation
      JOINT RightFoot
      {
        OFFSET 40.6238 0 0
        CHANNELS 3 Zrotation Xrotation Yrotation
        JOINT RightToeBase
        {
          OFFSET 12.7242 0 0
          CHANNELS 3 Zrotation Xrotation Yrotation
          End Site
          {
            OFFSET 0 0 0
          }
        }
      }
    }
  }
  JOINT Spine
  {
    OFFSET 0.165834 0.87714 6.61349
    CHANNELS 3 Zrotation Xrotation Yrotation
    JOINT Spine1
    {
      OFFSET 7.38963 1.71661e-005 0
      CHANNELS 3 Zrotation Xrotation Yrotation
      JOINT Spine2
      {
        OFFSET 11.9445 1.14441e-005 0
        CHANNELS 3 Zrotation Xrotation Yrotation
        JOINT Spine3
        {
          OFFSET 14.7254 4.19617e-005 0
          CHANNELS 3 Zrotation Xrotation Yrotation
          JOINT Spine4
          {
            OFFSET 10.9679 0 0
            CHANNELS 3 Zrotation Xrotation Yrotation
            JOINT RightShoulder
            {
              OFFSET 2.46616 -1.6653 3.69651
              CHANNELS 3 Zrotation Xrotation Yrotation
              JOINT RightArm
              {
                OFFSET 13.0012 0 0
                CHANNELS 3 Zrotation Xrotation Yrotation
                JOINT RightForeArm
                {
                  OFFSET 28.7848 1.62311e-005 0
                  CHANNELS 3 Zrotation Xrotation Yrotation
                  JOINT RightHand
                  {
                    OFFSET 26.5688 1.62095e-005 0
                    CHANNELS 3 Zrotation Xrotation Yrotation
                    End Site
                    {
                      OFFSET 0 0 0
                    }
                  }
                }
              }
            }
            JOINT LeftShoulder
            {
              OFFSET 2.38034 -1.29275 -3.7523
              CHANNELS 3 Zrotation Xrotation Yrotation
              JOINT LeftArm
              {
                OFFSET 16.3182 6.07031e-005 0
                CHANNELS 3 Zrotation Xrotation Yrotation
                JOINT LeftForeArm
                {
                  OFFSET 27.0901 0 0
                  CHANNELS 3 Zrotation Xrotation Yrotation
                  JOINT LeftHand
                  {
                    OFFSET 24.5451 1.51738e-005 0
                    CHANNELS 3 Zrotation Xrotation Yrotation
                    End Site
                    {
                      OFFSET 0 0 0
                    }
                  }
                }
              }
            }
            JOINT Neck
            {
              OFFSET 5.0226 -0.0266342 0
              CHANNELS 3 Zrotation Xrotation Yrotation
              JOINT Head
              {
                OFFSET 6.69364 2.86102e-005 0
                CHANNELS 3 Zrotation Xrotation Yrotation
                End Site
                {
                  OFFSET 0 0 0
                }
              }
            }
          }
        }
      }
    }
  }
}
MOTION
Frames:	10
Frame Time:	0.0416667
-316.659 95.8679 -311.02 70.9775 8.28259 99.3821 178.709 36.2159 108.087 -69.0642 43.9936 17.7937 154.275 33.2243 -45.2119 -14.6224 -31.5337 3.68935 165.75 51.7762 92.8374 -123.357 83.4615 77.217 7.62501 -2.46446 4.6963 -60.793 17.1242 -19.5266 -5.14346 5.96461 -91.9573 14.8978 -11.1475 -2.29573 3.27409 -11.2376 -1.79685 -19.5688 -9.93817 -5.5691 0.443797 -9.93818 -5.5691 91.577 -48.465 -98.3166 40.1625 -26.2958 62.3695 -135.031 -20.8398 -106.246 -92.9826 -11.4782 1.47209 -91.1101 -50.0582 77.5598 -23.7887 11.0383 17.9278 16.6702 -15.4555 -115.068 31.3561 3.03965 5.93017 3.39853 -1.20815 1.01432 -2.49759 -1.36299 0.58472 
-312.226 96.3339 -307.927 75.3842 -6.32614 93.3618 -175.263 12.4997 106.485 -46.8855 36.0609 9.88435 153.605 40.5399 -36.4989 -15.1614 -30.4384 -0.783465 166.663 44.4515 95.1367 -41.3949 9.26621 7.49532 63.315 2.35002 1.75825 36.5374 -2.47382 -8.53111 -3.29313 6.85831 -91.2487 13.1327 -7.13871 -1.62535 1.48065 -7.20331 -1.30805 -21.1759 -6.31936 -3.70296 -1.16328 -6.31939 -3.70297 91.6738 -42.4804 -99.5187 43.0748 -19.466 55.5384 -147.408 -21.9433 -115.655 -91.3626 -18.0584 8.35536 -91.272 -44.997 76.0616 -23.8718 12.1944 9.52756 18.6074 -15.3264 -112.778 31.6916 2.90948 5.38185 6.06404 -1.85924 -1.41236 1.29437 -1.49205 2.28375 
-307.525 94.8679 -305.244 75.0765 -22.402 82.0147 -175.708 -0.455892 89.4445 -30.3109 27.4073 3.08999 120.506 50.5104 -4.01284 2.66079 -18.6104 0.836598 177.533 46.8469 90.644 -25.7187 1.20144 -0.066105 53.9226 2.7022 1.96687 27.6859 -1.41585 -13.7229 -1.66446 7.02733 -90.3378 12.825 -3.46738 -0.267774 1.15883 -3.47584 -0.114718 -21.4105 -3.22634 -1.29865 -1.39788 -3.22635 -1.29865 92.5645 -39.1449 -98.7958 43.2163 -15.3873 50.3733 -153.855 -20.4723 -117.784 -79.3493 -19.1769 13.6131 -91.9597 -43.5263 74.5752 -24.1022 13.4249 6.85765 21.9526 -14.3958 -107.375 26.805 2.85425 6.94289 7.01489 -1.94069 -0.403146 2.77922 -1.72263 2.23271 
-300.259 94.1391 -300.614 77.877 -27.0914 79.6822 -176.62 -4.77829 86.9126 -43.76 20.0971 2.10211 66.3094 12.1381 12.8116 66.9109 26.1785 -6.97778 178.754 44.4773 88.9177 -25.7906 -1.6856 -1.14528 52.13 3.4927 2.64146 29.6009 -2.54944 -20.3023 -1.19105 7.20465 -89.8735 12.4701 -2.30607 0.519492 0.801141 -2.28098 0.620529 -21.7506 -2.35551 -0.197994 -1.73793 -2.3555 -0.197996 92.7696 -40.3414 -98.1612 40.4664 -13.8569 46.9893 -150.256 -21.5811 -117.196 -90.3026 -14.8953 5.10184 -92.8312 -43.6678 73.234 -25.9747 17.0721 7.09044 15.1645 -10.2255 -96.6732 27.401 2.29059 4.64395 5.55157 -2.70473 -0.0121579 2.96348 -2.53526 2.54311 
-292.7 92.0862 -295.259 80.0921 -26.8507 81.26 -175.649 0.21434 90.3904 -53.8907 14.9333 2.32733 44.2141 -10.4896 -1.9435 99.6136 45.2053 -15.9854 176.229 42.6647 90.7916 -34.8222 3.05449 -0.0951998 59.1222 1.15001 0.716463 24.9357 -0.256595 -3.83819 -1.07213 7.33385 -90.0598 12.2094 -2.15923 0.121585 0.540255 -2.15179 0.216536 -22.0087 -2.09588 -0.533261 -1.99607 -2.09591 -0.533271 92.7533 -41.0335 -98.0303 37.0511 -13.0542 41.433 -145.398 -23.2793 -116.843 -97.358 -10.0853 -1.47187 -94.0729 -45.106 71.7284 -26.7914 17.9864 7.71467 13.8189 -6.06598 -83.6662 20.943 1.05997 1.20215 2.85488 -3.63296 1.23449 4.82825 -3.62966 2.27487 
-285.201 90.0324 -289.409 80.9395 -29.2508 83.4684 -173.834 9.40788 92.1321 -69.5217 14.4763 2.42346 45.7429 -10.1681 -2.25987 33.3869 14.6662 30.1213 175.865 40.0219 95.819 -45.4528 4.16216 -0.198331 73.1871 -4.47406 -2.54709 24.0721 -0.214486 -3.76322 -0.659593 7.40737 -90.285 12.0598 -1.44603 -0.416149 0.38966 -1.46295 -0.352099 -22.1504 -1.25411 -0.831554 -2.13778 -1.25409 -0.83156 91.8657 -42.7036 -99.1449 34.0583 -14.089 34.6953 -135.647 -27.8646 -113.55 -104.763 -1.7643 -9.10709 -95.2898 -46.6091 70.3351 -27.837 16.5979 9.11801 13.1118 -0.284669 -70.8469 25.5802 1.48229 1.92677 0.881026 -4.4068 0.740684 6.79314 -4.23393 2.64719 
-277.897 88.2165 -283.885 84.6971 -32.7117 89.2087 -172.666 17.6874 97.0442 -82.659 16.9632 2.99808 47.6778 -9.49407 -1.51297 29.0145 5.82251 21.8764 178.675 34.3644 102.055 -52.8061 8.76978 -1.31439 78.408 -8.16287 -3.91614 31.2568 -0.679869 -4.58481 -0.106152 7.94624 -90.7918 10.9722 -0.577667 -1.51762 -0.699548 -0.643887 -1.49074 -23.2272 -0.0949432 -1.62105 -3.21451 -0.0949337 -1.62104 91.0908 -41.5371 -100.744 32.1306 -13.8385 25.0017 -127.227 -30.7909 -110.235 -105.549 4.42878 -13.9901 -97.7137 -50.0929 67.8855 -26.7147 12.5593 10.4653 10.0854 3.59133 -60.4132 28.2612 2.01171 3.31046 2.94357 -4.85001 2.70719 6.81234 -5.09374 1.37051 
-271.078 88.1868 -278.879 84.0947 -35.6088 87.4955 -171.352 28.9164 95.3896 -86.0844 14.5376 2.403 50.3701 -7.7229 -1.1116 32.6127 7.67626 15.9341 177.463 28.8587 101.037 -54.193 5.05027 -1.40603 83.2388 -10.3877 -4.55724 33.6729 -1.00251 -5.6416 0.363628 7.96154 -90.5823 10.9545 0.454351 -1.20325 -0.716935 0.400964 -1.22209 -23.2496 0.794971 -1.0111 -3.23696 0.794975 -1.0111 90.886 -40.1588 -101.455 32.0945 -12.4813 16.6419 -114.153 -31.5257 -101.945 -102.202 13.7382 -21.7423 -98.2419 -50.7981 67.3567 -28.3066 10.601 16.1747 7.09882 3.14696 -57.5336 29.4453 2.5538 4.88158 2.7736 -5.99129 2.86362 7.33872 -6.32308 0.144498 
-263.572 89.642 -273.474 82.4343 -37.6498 84.5125 -169.524 37.8603 92.3744 -81.1558 10.9702 1.16688 52.38 -6.63222 -1.19095 31.8544 8.88658 21.5883 177.05 21.6035 98.5719 -50.4866 1.27489 -2.43572 83.6813 -10.556 -4.59091 37.1044 -0.933168 -4.08343 0.719695 7.75202 -90.2902 11.3742 1.29678 -0.708213 -0.296367 1.26436 -0.764608 -22.8363 1.44965 -0.285672 -2.8237 1.44966 -0.285668 91.5197 -38.8346 -100.713 33.7905 -10.8862 11.7458 -88.1563 -23.0699 -88.6411 -87.0523 29.3642 -41.9019 -96.5607 -50.6001 69.7187 -31.6851 11.6882 23.7578 8.2344 2.73915 -61.5801 29.7645 2.67964 5.22644 0.535034 -7.67974 2.39185 8.37956 -7.93096 -0.562401 
-255.364 92.2927 -267.519 82.0633 -37.7868 83.7181 -170.574 41.4622 91.685 -67.999 7.92512 -0.368264 52.8583 -5.50675 2.65534 35.7872 11.6087 17.7544 177.48 12.278 96.8476 -43.0906 -2.85384 -3.88701 76.3093 -7.2595 -3.67163 43.6958 -1.52754 -5.00837 0.950003 7.63167 -90.1751 11.6158 1.80782 -0.535483 -0.0540809 1.7825 -0.614555 -22.5994 1.88514 0.0327912 -2.58675 1.88514 0.0327839 92.2443 -37.6615 -99.7392 35.2007 -10.1736 8.24436 -60.6226 -10.3318 -87.4876 -59.3503 32.8871 -65.6216 -93.9585 -49.2116 73.1179 -36.2501 13.7735 30.1882 9.29862 1.61711 -65.6683 28.9579 2.78603 5.86004 -0.794723 -9.57025 2.10272 8.49611 -9.83995 -1.71145 
